<?xml version="1.0" standalone="no"?>
<!DOCTYPE svg PUBLIC "-//W3C//DTD SVG 20010904//EN"
 "http://www.w3.org/TR/2001/REC-SVG-20010904/DTD/svg10.dtd">
<svg version="1.0" xmlns="http://www.w3.org/2000/svg"
 width="55.000000pt" height="40.000000pt" viewBox="0 0 144.000000 137.000000"
 preserveAspectRatio="xMidYMid meet">
<metadata>
Created by potrace 1.15, written by Peter Selinger 2001-2017
</metadata>
<g transform="translate(0.000000,137.000000) scale(0.100000,-0.100000)"
fill="#000000" stroke="none">
<path d="M516 1362 c-3 -5 -64 -161 -136 -348 -72 -186 -145 -367 -161 -400
-31 -66 -97 -134 -128 -134 -11 0 -23 -4 -26 -10 -4 -7 48 -10 150 -10 102 0
154 3 150 10 -3 6 -15 10 -25 10 -10 0 -32 12 -49 26 -44 36 -42 87 8 217 21
56 69 183 106 282 37 99 71 183 74 187 4 4 37 -66 74 -157 l66 -164 -65 -62
c-261 -251 -167 -674 177 -789 55 -19 81 -21 185 -18 116 3 123 4 198 42 229
113 338 374 250 596 -83 209 -316 348 -524 312 -37 -6 -73 -14 -81 -17 -10 -4
-37 52 -104 215 -79 192 -93 220 -112 220 -12 0 -24 -4 -27 -8z m509 -453 c86
-41 159 -154 191 -297 22 -101 15 -262 -16 -351 -31 -88 -101 -177 -170 -215
-48 -27 -64 -31 -130 -30 -53 0 -87 6 -115 19 -90 43 -180 172 -206 293 -14
71 -6 269 14 332 19 57 49 120 58 120 10 0 79 -187 79 -216 0 -36 -50 -84 -89
-84 -16 0 -33 -4 -36 -10 -4 -7 72 -10 220 -10 209 0 272 8 177 23 -43 7 -79
41 -110 102 -41 82 -134 316 -128 322 3 3 27 12 53 19 62 18 150 10 208 -17z"/>
</g>
</svg>
